<svg height="0" width="0" viewBox="0 0 108 40" fill="none" xmlns="http://www.w3.org/2000/svg">
<g clip-path="url(#clip0)">
<path fill-rule="evenodd" clip-rule="evenodd" d="M90.4187 34.2141H94.6048V14.1863H90.4187V34.2141Z" fill="#67686a"/>
<mask id="mask0" mask-type="alpha" maskUnits="userSpaceOnUse" x="0" y="9" width="108" height="26">
<path d="M0.0203857 34.2141V9.28088H107.76V34.2141H0.0203857Z" fill="white"/>
</mask>
<g mask="url(#mask0)">
<path fill-rule="evenodd" clip-rule="evenodd" d="M104.537 14.2202V9.28088H100.217V14.2202H96.8572V18.2122H100.217V33.842H104.537V18.2122H107.76V14.2202H104.537Z" fill="#67686a"/>
<path fill-rule="evenodd" clip-rule="evenodd" d="M6.44571 18.1107C6.72 17.9416 7.06286 17.8062 7.44 17.7386C8.67428 17.4679 9.94286 17.6371 10.9371 18.1784C11.6229 18.5505 12.1714 19.058 12.5486 19.6669L12.8571 20.1405L16.1829 17.3664L15.9429 17.0281C15.2229 15.9794 14.16 15.1674 12.8229 14.5923C10.6629 13.6789 8.22857 13.5436 6.03429 14.1187C5.14286 14.3555 4.32 14.7276 3.63429 15.2013C2.91429 15.7087 2.33143 16.3515 1.88571 17.0958C1.44 17.8739 1.2 18.8212 1.2 19.8699C1.2 20.8172 1.37143 21.5953 1.74857 22.2719C2.09143 22.9147 2.57143 23.456 3.15429 23.8958C3.70286 24.3017 4.35429 24.64 5.04 24.8768C5.69143 25.1137 6.34286 25.2828 6.99428 25.452C8.53714 25.7903 9.73714 26.1962 10.5257 26.5684C11.1771 26.9067 11.52 27.3803 11.52 28.0569C11.52 28.4967 11.4514 28.835 11.28 29.1057C11.1086 29.3763 10.8686 29.5793 10.5943 29.7485C10.2857 29.9176 9.94286 30.0529 9.56571 30.1544C9.15429 30.2221 8.74286 30.2898 8.29714 30.2898C7.33714 30.2898 6.44571 30.0529 5.62286 29.6131C4.8 29.1733 4.18286 28.5982 3.70286 27.9216L3.39429 27.4818L0 30.3574L0.274286 30.7296C1.2 31.9136 2.43429 32.7932 3.84 33.3683C5.24571 33.9435 6.72 34.2141 8.19428 34.2141C9.18857 34.2141 10.1486 34.1126 11.0743 33.8758C12.0343 33.639 12.8914 33.2669 13.6114 32.7594C14.3657 32.2519 14.9829 31.5753 15.4286 30.7634C15.8743 29.9514 16.1143 28.9365 16.1143 27.7863C16.1143 26.9067 15.9429 26.1286 15.6 25.452C15.2571 24.8092 14.7771 24.2341 14.16 23.7604C13.5429 23.3206 12.8571 22.9147 12.0343 22.6102C11.2457 22.3057 10.3886 22.0689 9.49714 21.8659C8.12571 21.5614 7.09714 21.2231 6.41143 20.8848C5.86286 20.5803 5.58857 20.1744 5.58857 19.5654C5.58857 19.2271 5.65714 18.9226 5.79429 18.7197C5.96571 18.449 6.17143 18.246 6.44571 18.1107Z" fill="#4186ca"/>
</g>
<path fill-rule="evenodd" clip-rule="evenodd" d="M38.5116 34.2141H42.6977V14.1863H38.5116V34.2141Z" fill="#4186ca"/>
<path fill-rule="evenodd" clip-rule="evenodd" d="M61.7733 24.3819C61.7733 27.8814 59.1744 30.506 55.7091 30.506C52.2438 30.506 49.6449 27.8814 49.6449 24.3819C49.6449 20.8825 52.2438 18.2242 55.7091 18.2242C59.1397 18.2242 61.7733 20.8488 61.7733 24.3819ZM55.6745 14.1863C49.7142 14.1863 45.2094 18.5607 45.2094 24.3819V39.2211H49.6102V32.7268C51.3429 33.9045 53.422 34.5439 55.6745 34.5439C61.6347 34.5439 66.1396 30.1695 66.1396 24.3819C66.1396 18.5607 61.6347 14.1863 55.6745 14.1863Z" fill="#4186ca"/>
<path fill-rule="evenodd" clip-rule="evenodd" d="M84.3778 24.3819C84.3778 27.8814 81.7789 30.506 78.3136 30.506C74.8484 30.506 72.2495 27.8814 72.2495 24.3819C72.2495 20.8825 74.8484 18.2242 78.3136 18.2242C81.7442 18.2242 84.3778 20.8488 84.3778 24.3819ZM78.279 14.1863C72.3188 14.1863 67.814 18.5607 67.814 24.3819V39.2211H72.2148V32.7268C73.9474 33.9045 76.0266 34.5439 78.279 34.5439C84.2392 34.5439 88.744 30.1695 88.744 24.3819C88.7787 18.5607 84.2738 14.1863 78.279 14.1863Z" fill="#4186ca"/>
<path fill-rule="evenodd" clip-rule="evenodd" d="M26.3549 13.7375C24.669 13.7375 23.1896 14.1173 21.951 14.8079V9.17941H17.5814V34.2141H21.951V23.6823C21.951 18.6753 25.0475 17.9502 26.3205 17.8811C28.0064 17.9847 30.7933 18.848 30.7933 23.6823V34.1796H35.1628V23.6823C35.1628 17.5013 31.8599 13.772 26.3549 13.7375Z" fill="#4186ca"/>
<path fill-rule="evenodd" clip-rule="evenodd" d="M85.8013 4.10715C85.406 3.95295 84.9029 3.79876 84.7232 3.73708C84.5435 3.6754 84.0404 3.49036 83.6451 3.36701C83.2498 3.24365 82.7107 3.5212 82.4592 4.04547L82.1717 4.66226C81.9201 5.15569 82.0638 5.71079 82.4592 5.83415C82.8545 5.98835 83.3216 6.14254 83.5373 6.23506C83.717 6.29674 84.2201 6.48178 84.6154 6.63597C85.0107 6.79017 85.5497 6.48178 85.8013 5.98835L86.1247 5.27904C86.3404 4.78561 86.2326 4.26135 85.8013 4.10715Z" fill="#67686a"/>
<path fill-rule="evenodd" clip-rule="evenodd" d="M79.9772 1.39544C79.6414 1.29321 79.2141 1.19097 79.031 1.12282C78.8479 1.08874 78.4511 0.95243 78.1154 0.850197C77.7797 0.747964 77.3829 1.1569 77.2303 1.73622L77.0777 2.34961C76.9251 2.92893 77.1082 3.50825 77.444 3.61049C77.7797 3.71272 78.207 3.84903 78.3596 3.88311C78.5122 3.95126 78.9395 4.0535 79.2752 4.15573C79.6109 4.25796 80.0077 3.88311 80.1603 3.26971L80.3129 2.58816C80.4655 2.04291 80.3129 1.49767 79.9772 1.39544Z" fill="#67686a"/>
<path fill-rule="evenodd" clip-rule="evenodd" d="M73.9789 0.301198C73.6203 0.263801 73.1639 0.189007 73.0009 0.151609C72.8053 0.114212 72.3815 0.0394179 72.0229 0.00202079C71.6643 -0.0353764 71.3057 0.450787 71.2405 1.08654L71.1753 1.6475C71.1101 2.32064 71.3057 2.8816 71.6643 2.9564C72.0229 3.03119 72.4793 3.10599 72.6423 3.14338C72.8379 3.18078 73.2617 3.25557 73.6203 3.33037C73.9789 3.40516 74.3376 2.919 74.4354 2.24585L74.5006 1.6101C74.5658 0.93695 74.3376 0.375992 73.9789 0.301198Z" fill="#67686a"/>
<path fill-rule="evenodd" clip-rule="evenodd" d="M68.034 0C67.6584 0 67.2145 0 67.0096 0C66.8048 0 66.3609 0 65.9853 0C65.6097 0 65.3024 0.443653 65.3024 1.01406V1.39434C65.3024 1.96475 65.5755 2.44009 65.9511 2.44009C66.3267 2.44009 66.7706 2.47178 66.9413 2.47178C67.1462 2.47178 67.5901 2.50347 67.9657 2.50347C68.3413 2.50347 68.6486 2.05982 68.6486 1.48941V1.04575C68.6828 0.475343 68.3755 0 68.034 0Z" fill="#67686a"/>
<path fill-rule="evenodd" clip-rule="evenodd" d="M63.5809 0.951746C63.5109 0.381724 63.1959 -0.0299582 62.8459 0.00170971C62.496 0.0333776 62.041 0.0650454 61.831 0.0967133C61.621 0.128381 61.166 0.160049 60.816 0.191717C60.466 0.223385 60.221 0.698403 60.291 1.26842L60.326 1.52177C60.396 2.09179 60.711 2.50347 61.061 2.50347C61.411 2.4718 61.866 2.44014 62.076 2.44014C62.286 2.44014 62.7409 2.3768 63.0909 2.3768C63.4409 2.34513 63.6859 1.87011 63.6159 1.30009L63.5809 0.951746Z" fill="#67686a"/>
<path fill-rule="evenodd" clip-rule="evenodd" d="M57.6801 1.72368C57.5341 1.18771 57.1328 0.777861 56.8044 0.840915C56.4761 0.90397 56.0018 0.998551 55.8194 1.03008C55.6005 1.06161 55.1626 1.15619 54.8343 1.21924C54.5059 1.2823 54.3235 1.78673 54.4694 2.32269L54.5059 2.4488C54.6519 2.98476 55.0532 3.39462 55.3815 3.33156C55.7099 3.26851 56.1842 3.17393 56.3666 3.1424C56.5855 3.11087 57.0233 3.01629 57.3517 2.95324C57.6801 2.89018 57.8625 2.38575 57.7165 1.84978L57.6801 1.72368Z" fill="#67686a"/>
<path fill-rule="evenodd" clip-rule="evenodd" d="M51.7065 3.24936C51.4848 2.73854 51.0414 2.40801 50.7089 2.5282C50.3764 2.61835 49.9699 2.76859 49.7852 2.82868C49.6005 2.88878 49.1571 3.00897 48.8615 3.12916C48.529 3.21931 48.4551 3.73013 48.7137 4.2109V4.24095C48.9354 4.75177 49.3788 5.0823 49.7113 4.99215C50.0438 4.90201 50.4503 4.78182 50.635 4.72172C50.8197 4.66162 51.2631 4.54143 51.5956 4.45129C51.9281 4.36114 52.002 3.88037 51.7804 3.36955L51.7065 3.24936Z" fill="#67686a"/>
<path fill-rule="evenodd" clip-rule="evenodd" d="M45.4889 5.04896C45.1825 5.16993 44.7996 5.35139 44.6081 5.44212C44.4166 5.53285 44.0336 5.71431 43.7273 5.83529C43.4592 5.95626 43.4592 6.44015 43.8039 6.89381C44.1102 7.34746 44.6464 7.61965 44.9144 7.46843C45.2208 7.34746 45.6038 7.166 45.7952 7.07527C45.9867 6.98454 46.3697 6.83332 46.676 6.6821C46.9824 6.56113 46.9441 6.07723 46.5994 5.62358C46.2931 5.16993 45.7952 4.89774 45.4889 5.04896Z" fill="#67686a"/>
<path fill-rule="evenodd" clip-rule="evenodd" d="M40.6395 7.51134C39.4888 7.47659 38.5125 8.41497 38.5125 9.56188C38.4777 10.7088 39.4191 11.6819 40.5697 11.6819C41.7204 11.7167 42.6967 10.7783 42.6967 9.63139C42.7315 8.48448 41.825 7.51134 40.6395 7.51134Z" fill="#67686a"/>
<path fill-rule="evenodd" clip-rule="evenodd" d="M94.5499 10.9826L91.8788 4.4706C91.7097 4.05046 91.5068 4.08547 91.4054 4.50561C91.4054 4.50561 91.1687 5.66097 90.9996 6.32618C90.7292 6.15113 90.4248 5.97607 90.3234 5.90605C90.1544 5.80101 89.7148 5.52093 89.3767 5.31086C89.0047 5.06578 88.4638 5.31086 88.1256 5.83603L87.6523 6.60627C87.348 7.13143 87.348 7.76163 87.7199 8.00671C88.0918 8.25179 89.4105 9.09205 89.4105 9.09205L87.3142 10.2474C86.9422 10.4575 87.0099 10.6675 87.4156 10.7376L94.0427 11.6829C94.4823 11.6829 94.7189 11.4028 94.5499 10.9826Z" fill="#67686a"/>
</g>
<defs>
<clipPath id="clip0">
<rect width="108" height="39.2211" fill="white"/>
</clipPath>
</defs>
</svg>
