<?xml version="1.0" encoding="UTF-8"?>
<svg viewBox="0 0 155 47" version="1.1" xmlns="http://www.w3.org/2000/svg" xmlns:xlink="http://www.w3.org/1999/xlink">
    <title>twine-logo-brand</title>
    <g id="Dashboard" stroke="none" stroke-width="1" fill="none" fill-rule="evenodd">
        <g id="Artboard-Copy" transform="translate(-90.000000, -72.000000)" fill="#4A2BC7">
            <path d="M103.455072,77 L103.455072,86 L111,86 L111,93.661699 L103.455072,93.661699 L103.455072,107.400894 C103.455072,109.579732 104.857971,111.117735 106.57971,111.117735 C107.855072,111.117735 109.130435,110.669151 109.768116,110.028316 L109.768116,110.028316 L112,116.116244 C110.086957,117.846498 107.089855,119 104.411594,119 C98.6086957,119 94.5275362,114.834575 94.5275362,108.874814 L94.5275362,108.874814 L94.5275362,93.661699 L90,93.661699 L90,86 L94.5275362,86 L94.5275362,77 L103.455072,77 Z M122.037175,86 L128.230483,106.553191 L134.67658,86 L142.32342,86 L148.769517,106.553191 L154.962825,86 L164,86 L152.877323,119 L144.598513,119 L138.531599,98.2553191 L132.401487,119 L124.122677,119 L113,86 L122.037175,86 Z M175,86 L175,119 L166,119 L166,86 L175,86 Z M187.161943,86 L187.161943,90.8034026 C189.107287,87.8714556 192.746964,86 196.951417,86 C203.979757,86 209,91.1776938 209,98.4763705 L209,98.4763705 L209,119 L200.151822,119 L200.151822,100.410208 C200.151822,96.4177694 197.6417,93.6729679 194.002024,93.6729679 C190.174089,93.6729679 187.224696,96.4177694 187.224696,99.9111531 L187.224696,99.9111531 L187.161943,99.7240076 L187.161943,119 L178,119 L178,86 L187.161943,86 Z M228.784423,86 C239.005915,86 245,93.5027726 245,105.397412 L245,105.397412 L221.464344,105.397412 C222.53697,108.813309 225.376273,111.131238 229.226093,111.131238 C231.812028,111.131238 234.966809,109.972274 236.733487,108.325323 L236.733487,108.325323 L242.60138,114.120148 C239.698981,117.048059 234.08347,119 229.288202,119 C219.571476,119 212,112.107209 212,102.408503 C212,92.8927911 219.256983,86 228.784423,86 Z M229.162011,93.8687616 C225.691752,93.8687616 222.789353,95.8207024 221.590536,98.9926063 L221.590536,98.9926063 L236.165626,98.9926063 C235.282287,95.8817006 232.884653,93.8687616 229.162011,93.8687616 Z M170.556962,72 C173.005439,72 175,74.1075949 175,76.443038 C175,78.9493671 173.006329,81 170.556962,81 C167.992781,81 166,78.9493671 166,76.443038 C166,74.1075949 167.992781,72 170.556962,72 Z" id="twine-logo-brand"></path>
        </g>
    </g>
</svg>
